<?xml version="1.0" encoding="UTF-8" standalone="no"?>
<!-- Created with Inkscape (http://www.inkscape.org/) -->

<svg
   xmlns:dc="http://purl.org/dc/elements/1.1/"
   xmlns:cc="http://creativecommons.org/ns#"
   xmlns:rdf="http://www.w3.org/1999/02/22-rdf-syntax-ns#"
   xmlns:svg="http://www.w3.org/2000/svg"
   xmlns="http://www.w3.org/2000/svg"
   xmlns:sodipodi="http://sodipodi.sourceforge.net/DTD/sodipodi-0.dtd"
   xmlns:inkscape="http://www.inkscape.org/namespaces/inkscape"
   width="744.09448819"
   height="1052.3622047"
   id="svg2"
   version="1.1"
   inkscape:version="0.47 r22583"
   sodipodi:docname="New document 1">
  <defs
     id="defs4">
    <inkscape:perspective
       sodipodi:type="inkscape:persp3d"
       inkscape:vp_x="0 : 526.18109 : 1"
       inkscape:vp_y="0 : 1000 : 0"
       inkscape:vp_z="744.09448 : 526.18109 : 1"
       inkscape:persp3d-origin="372.04724 : 350.78739 : 1"
       id="perspective10" />
    <inkscape:perspective
       id="perspective3601"
       inkscape:persp3d-origin="0.5 : 0.33333333 : 1"
       inkscape:vp_z="1 : 0.5 : 1"
       inkscape:vp_y="0 : 1000 : 0"
       inkscape:vp_x="0 : 0.5 : 1"
       sodipodi:type="inkscape:persp3d" />
    <inkscape:perspective
       id="perspective3631"
       inkscape:persp3d-origin="0.5 : 0.33333333 : 1"
       inkscape:vp_z="1 : 0.5 : 1"
       inkscape:vp_y="0 : 1000 : 0"
       inkscape:vp_x="0 : 0.5 : 1"
       sodipodi:type="inkscape:persp3d" />
  </defs>
  <sodipodi:namedview
     id="base"
     pagecolor="#ffffff"
     bordercolor="#666666"
     borderopacity="1.0"
     inkscape:pageopacity="0.0"
     inkscape:pageshadow="2"
     inkscape:zoom="0.7"
     inkscape:cx="46.138244"
     inkscape:cy="762.54411"
     inkscape:document-units="px"
     inkscape:current-layer="layer1"
     showgrid="false"
     inkscape:window-width="1440"
     inkscape:window-height="825"
     inkscape:window-x="0"
     inkscape:window-y="24"
     inkscape:window-maximized="1" />
  <metadata
     id="metadata7">
    <rdf:RDF>
      <cc:Work
         rdf:about="">
        <dc:format>image/svg+xml</dc:format>
        <dc:type
           rdf:resource="http://purl.org/dc/dcmitype/StillImage" />
        <dc:title></dc:title>
      </cc:Work>
    </rdf:RDF>
  </metadata>
  <g
     inkscape:label="Layer 1"
     inkscape:groupmode="layer"
     id="layer1">
    <path
       style="fill:#d38d5f;fill-opacity:1;stroke:none"
       d="m 186.49464,152.39317 c 0,41.56294 -4.80077,124.90541 -21.80132,152.14286 -17.00055,27.23744 -39.26108,10.9819 -65.203049,10.9819 -25.94197,0 -63.71374,21.72472 -80.71429,-5.51272 -17.0005596,-27.23745 -11.8013296,-113.43706 -11.8013296,-155 0,-41.56294 2.70868,-92.701284 17.6171396,-120.591744 14.90846,-27.8904503 42.0167,-32.5330303 67.95867,-32.5330303 25.941969,0 50.856579,9.7038503 67.857139,36.9413003 17.00055,27.23745 26.08704,72.008494 26.08704,113.571434 z"
       id="path2816"
       sodipodi:nodetypes="csssssssc" />
    <path
       style="fill:#e9c6af;fill-opacity:1;stroke:none"
       d="m 155.14286,73.933616 c 0,26.430774 -28.1421,47.857144 -62.85714,47.857144 -17.35752,0 -37.35752,0.35769 -48.73242,-8.30275 -11.37491,-8.66043 -14.12472,-26.339004 -14.12472,-39.554394 0,-26.43077 28.1421,-47.85714 62.85714,-47.85714 34.71504,0 62.85714,21.42637 62.85714,47.85714 z"
       id="path3620"
       sodipodi:nodetypes="cssssc" />
    <path
       sodipodi:type="arc"
       style="fill:#241f1c;fill-opacity:1;stroke:none"
       id="path3591"
       sodipodi:cx="175"
       sodipodi:cy="153.07646"
       sodipodi:rx="9.2857141"
       sodipodi:ry="12.142858"
       d="m 184.28571,153.07646 a 9.2857141,12.142858 0 1 1 -18.57142,0 9.2857141,12.142858 0 1 1 18.57142,0 z"
       transform="translate(-118.57143,-94.285714)" />
    <path
       transform="matrix(0,1,-1,0,240.21931,-94.066389)"
       sodipodi:type="arc"
       style="fill:#241f1c;fill-opacity:1;stroke:none"
       id="path3591-2"
       sodipodi:cx="175"
       sodipodi:cy="153.07646"
       sodipodi:rx="9.2857141"
       sodipodi:ry="17.857143"
       d="m 184.28571,153.07646 a 9.2857141,17.857143 0 1 1 -18.57142,0 9.2857141,17.857143 0 1 1 18.57142,0 z" />
    <path
       style="fill:none;stroke:#000000;stroke-width:2.5999999;stroke-linecap:butt;stroke-linejoin:miter;stroke-miterlimit:4;stroke-opacity:1;stroke-dasharray:none"
       d="m 138.57143,83.790746 c -68.571429,72.857144 -92.857149,2.85715 -92.857149,2.85715"
       id="path3615"
       sodipodi:nodetypes="cc" />
    <path
       style="fill:#e9c6af;fill-opacity:1;stroke:none"
       d="m 167.14285,223.79074 c 0,18.1465 3.12438,41.71793 -7.99201,53.60988 -11.11638,11.89195 -30.75924,13.53299 -47.72227,13.53299 -16.963029,0 -66.605889,-0.21247 -77.722269,-12.10442 -11.11639,-11.89194 -9.42059,-58.32052 -9.42059,-76.46702 0,-36.293 43.2168,-64.28572 77.142859,-64.28572 33.92606,0 65.71428,49.42129 65.71428,85.71429 z"
       id="path3617"
       sodipodi:nodetypes="csssssc" />
    <path
       transform="translate(-60.714286,-96.428565)"
       sodipodi:type="arc"
       style="fill:#241f1c;fill-opacity:1;stroke:none"
       id="path3591-26"
       sodipodi:cx="175"
       sodipodi:cy="153.07646"
       sodipodi:rx="9.2857141"
       sodipodi:ry="12.142858"
       d="m 184.28571,153.07646 a 9.2857141,12.142858 0 1 1 -18.57142,0 9.2857141,12.142858 0 1 1 18.57142,0 z" />
  </g>
</svg>
