<?xml version="1.0" encoding="UTF-8" standalone="no"?>
<!-- Created with Inkscape (http://www.inkscape.org/) -->

<svg
   xmlns:dc="http://purl.org/dc/elements/1.1/"
   xmlns:cc="http://creativecommons.org/ns#"
   xmlns:rdf="http://www.w3.org/1999/02/22-rdf-syntax-ns#"
   xmlns:svg="http://www.w3.org/2000/svg"
   xmlns="http://www.w3.org/2000/svg"
   xmlns:sodipodi="http://sodipodi.sourceforge.net/DTD/sodipodi-0.dtd"
   xmlns:inkscape="http://www.inkscape.org/namespaces/inkscape"
   width="744.09448819"
   height="1052.3622047"
   id="svg2"
   version="1.1"
   inkscape:version="0.47 r22583"
   sodipodi:docname="sun2.svg">
  <defs
     id="defs4">
    <inkscape:perspective
       sodipodi:type="inkscape:persp3d"
       inkscape:vp_x="0 : 526.18109 : 1"
       inkscape:vp_y="0 : 1000 : 0"
       inkscape:vp_z="744.09448 : 526.18109 : 1"
       inkscape:persp3d-origin="372.04724 : 350.78739 : 1"
       id="perspective10" />
    <inkscape:perspective
       id="perspective3606"
       inkscape:persp3d-origin="0.5 : 0.33333333 : 1"
       inkscape:vp_z="1 : 0.5 : 1"
       inkscape:vp_y="0 : 1000 : 0"
       inkscape:vp_x="0 : 0.5 : 1"
       sodipodi:type="inkscape:persp3d" />
    <inkscape:perspective
       id="perspective3686"
       inkscape:persp3d-origin="0.5 : 0.33333333 : 1"
       inkscape:vp_z="1 : 0.5 : 1"
       inkscape:vp_y="0 : 1000 : 0"
       inkscape:vp_x="0 : 0.5 : 1"
       sodipodi:type="inkscape:persp3d" />
    <inkscape:perspective
       id="perspective3709"
       inkscape:persp3d-origin="0.5 : 0.33333333 : 1"
       inkscape:vp_z="1 : 0.5 : 1"
       inkscape:vp_y="0 : 1000 : 0"
       inkscape:vp_x="0 : 0.5 : 1"
       sodipodi:type="inkscape:persp3d" />
  </defs>
  <sodipodi:namedview
     id="base"
     pagecolor="#ffffff"
     bordercolor="#666666"
     borderopacity="1.0"
     inkscape:pageopacity="0.0"
     inkscape:pageshadow="2"
     inkscape:zoom="1.4"
     inkscape:cx="-7.5215063"
     inkscape:cy="862.85714"
     inkscape:document-units="px"
     inkscape:current-layer="layer1"
     showgrid="false"
     inkscape:window-width="1440"
     inkscape:window-height="825"
     inkscape:window-x="0"
     inkscape:window-y="24"
     inkscape:window-maximized="1" />
  <metadata
     id="metadata7">
    <rdf:RDF>
      <cc:Work
         rdf:about="">
        <dc:format>image/svg+xml</dc:format>
        <dc:type
           rdf:resource="http://purl.org/dc/dcmitype/StillImage" />
        <dc:title></dc:title>
      </cc:Work>
    </rdf:RDF>
  </metadata>
  <g
     inkscape:label="Layer 1"
     inkscape:groupmode="layer"
     id="layer1">
    <path
       sodipodi:type="star"
       style="fill:#ffbe41;fill-opacity:1;stroke:none"
       id="path3594"
       sodipodi:sides="12"
       sodipodi:cx="182.85715"
       sodipodi:cy="678.07648"
       sodipodi:r1="172.02277"
       sodipodi:r2="127.419"
       sodipodi:arg1="0.84415401"
       sodipodi:arg2="0.97367873"
       inkscape:flatsided="false"
       inkscape:rounded="1.8839097e-15"
       inkscape:randomized="0"
       d="m 297.14285,806.6479 -42.64295,-23.20104 -36.95414,63.11859 -25.32935,-41.41417 -63.56253,36.18523 -1.22878,-48.5304 -73.139374,-0.44393 23.201043,-42.64295 -63.11859,-36.95414 41.414165,-25.32935 -36.185229,-63.56253 48.530396,-1.22878 0.443934,-73.13937 42.642945,23.20104 36.95415,-63.11859 25.32935,41.41416 63.56252,-36.18522 1.22878,48.53039 73.13938,0.44393 -23.20104,42.64295 63.11859,36.95415 -41.41417,25.32935 36.18523,63.56252 -48.5304,1.22878 -0.44393,73.13938 z"
       inkscape:export-filename="/home/pdevine/sun.png"
       inkscape:export-xdpi="25.540001"
       inkscape:export-ydpi="25.540001"
       transform="translate(-11.428571,-502.85714)" />
    <path
       sodipodi:type="arc"
       style="fill:#fbff4c;fill-opacity:1;stroke:none"
       id="path2816"
       sodipodi:cx="362.85715"
       sodipodi:cy="400.93362"
       sodipodi:rx="105.71429"
       sodipodi:ry="94.285713"
       d="m 468.57143,400.93362 a 105.71429,94.285713 0 1 1 -211.42857,0 105.71429,94.285713 0 1 1 211.42857,0 z"
       transform="translate(-188.57143,-222.85714)"
       inkscape:export-filename="/home/pdevine/sun.png"
       inkscape:export-xdpi="25.540001"
       inkscape:export-ydpi="25.540001" />
    <path
       style="fill:#000000;fill-opacity:1;stroke:none"
       d="m 251.48231,202.80401 c 0,25.82194 -34.5621,46.75475 -77.19659,46.75475 -42.63449,0 -77.196581,-20.93281 -77.196581,-46.75475 0,-25.82193 34.562091,-16.42735 77.196581,-16.42735 42.63449,0 77.19659,-9.39458 77.19659,16.42735 z"
       id="path3620"
       sodipodi:nodetypes="csssc"
       inkscape:export-filename="/home/pdevine/sun.png"
       inkscape:export-xdpi="25.540001"
       inkscape:export-ydpi="25.540001" />
    <path
       style="fill:#000000;fill-opacity:1;stroke:none"
       d="m 162.14285,151.64789 c 0,11.0457 -13.68817,-12.14285 -20,-12.14285 -6.31183,0 -20.00001,22.47427 -20.00001,11.42857 0,-11.04569 12.97389,-21.42857 19.28572,-21.42857 6.31183,0 20.71429,11.09716 20.71429,22.14285 z"
       id="path3596-3"
       sodipodi:nodetypes="csssc" />
    <path
       style="fill:#000000;fill-opacity:1;stroke:none"
       d="m 228.57144,151.94224 c 0,11.0457 -13.68817,-12.14285 -20,-12.14285 -6.31183,0 -20.00001,22.47427 -20.00001,11.42857 0,-11.04569 12.97389,-21.42857 19.28572,-21.42857 6.31183,0 20.71429,11.09716 20.71429,22.14285 z"
       id="path3596-3-0"
       sodipodi:nodetypes="csssc" />
  </g>
</svg>
